<?xml version="1.0" encoding="UTF-8" standalone="no"?>
<!-- Created with Inkscape (http://www.inkscape.org/) -->

<svg
   xmlns:dc="http://purl.org/dc/elements/1.1/"
   xmlns:cc="http://creativecommons.org/ns#"
   xmlns:rdf="http://www.w3.org/1999/02/22-rdf-syntax-ns#"
   xmlns:svg="http://www.w3.org/2000/svg"
   xmlns="http://www.w3.org/2000/svg"
   xmlns:sodipodi="http://sodipodi.sourceforge.net/DTD/sodipodi-0.dtd"
   xmlns:inkscape="http://www.inkscape.org/namespaces/inkscape"
   width="100mm"
   height="100mm"
   viewBox="0 0 100 100"
   version="1.1"
   id="svg8"
   inkscape:version="0.92.4 (5da689c313, 2019-01-14)"
   sodipodi:docname="fbookiconNeon.svg">
  <defs
     id="defs2" />
  <sodipodi:namedview
     id="base"
     pagecolor="#ffffff"
     bordercolor="#666666"
     borderopacity="1.0"
     inkscape:pageopacity="0.0"
     inkscape:pageshadow="2"
     inkscape:zoom="0.7"
     inkscape:cx="404.03203"
     inkscape:cy="-49.209636"
     inkscape:document-units="mm"
     inkscape:current-layer="layer2"
     showgrid="false"
     inkscape:window-width="1920"
     inkscape:window-height="1017"
     inkscape:window-x="-8"
     inkscape:window-y="-8"
     inkscape:window-maximized="1"
     inkscape:object-nodes="false" />
  <metadata
     id="metadata5">
    <rdf:RDF>
      <cc:Work
         rdf:about="">
        <dc:format>image/svg+xml</dc:format>
        <dc:type
           rdf:resource="http://purl.org/dc/dcmitype/StillImage" />
        <dc:title></dc:title>
      </cc:Work>
    </rdf:RDF>
  </metadata>
  <g
     inkscape:label="Layer 1"
     inkscape:groupmode="layer"
     id="layer1"
     transform="translate(0,-197)">
    <path
       style="opacity:1;vector-effect:none;fill:#4c2a85;fill-opacity:1;stroke:#4c2a85;stroke-width:7.63579893;stroke-linecap:butt;stroke-linejoin:miter;stroke-miterlimit:4;stroke-dasharray:none;stroke-dashoffset:0;stroke-opacity:1"
       d="M 179.06327,350.89474 C 115.00546,347.01102 58.845047,305.24659 36.726081,245.04381 19.356302,197.76723 24.958875,144.78804 51.819394,102.31805 78.138881,60.703501 122.16855,33.183142 171.23458,27.678619 c 17.56754,-1.970831 37.96781,-0.692861 55.38509,3.469589 80.15089,19.154766 133.41059,95.714772 123.39454,177.377742 -8.91181,72.65986 -65.17294,130.37773 -137.35703,140.91357 -6.60943,0.9647 -20.77742,2.04749 -25.00762,1.91122 -1.25006,-0.0403 -5.11389,-0.24547 -8.58629,-0.456 z m 31.58317,-8.48681 c 17.93933,-2.73388 30.83375,-6.77407 46.95619,-14.71274 42.87351,-21.11086 73.79968,-61.14926 83.08418,-107.56447 2.54413,-12.71863 2.7804,-15.42837 2.7545,-31.59028 -0.0211,-13.1296 -0.17568,-16.12272 -1.15843,-22.42194 C 335.51999,122.76976 311.43542,84.699631 275.42488,60.437021 256.53867,47.712179 234.8845,39.293791 211.64069,35.63995 205.53922,34.680823 202.4919,34.525921 189.41733,34.51029 173.26218,34.490976 170.53201,34.729566 157.82705,37.270958 98.81537,49.07515 51.878599,94.948351 37.933478,154.44779 c -2.744743,11.71095 -3.502769,18.90313 -3.539994,33.58757 -0.0376,14.83243 0.393266,19.78515 2.748223,31.59029 5.336676,26.75216 18.00403,52.0133 36.459855,72.70796 24.807853,27.81724 60.997918,46.62306 97.127948,50.4716 2.77792,0.2959 5.84626,0.63179 6.81853,0.74642 0.97227,0.11463 7.33623,0.12988 14.14213,0.0339 9.05103,-0.12766 14.14205,-0.44392 18.95627,-1.17758 z"
       id="path843"
       inkscape:connector-curvature="0"
       transform="matrix(0.26458333,0,0,0.26458333,0,197)" />
  </g>
  <g
     inkscape:groupmode="layer"
     id="layer2"
     inkscape:label="Layer 2">
    <circle
       style="fill:#000000;fill-opacity:1;stroke:#4ecdc4;stroke-width:1;stroke-miterlimit:4;stroke-dasharray:none;stroke-opacity:1"
       id="path815"
       cx="50"
       cy="50"
       r="41.955357" />
    <path
       style="opacity:1;vector-effect:none;fill:none;fill-opacity:1;stroke:#4c2a85;stroke-width:0.75;stroke-linecap:butt;stroke-linejoin:miter;stroke-miterlimit:4;stroke-dasharray:none;stroke-dashoffset:0;stroke-opacity:1"
       d="m 42.095127,63.184533 -0.03407,-12.92916 -2.639287,-0.0362 -2.639285,-0.0362 v -4.94166 -4.94166 h 2.654112 2.65411 l 0.07927,-3.57473 c 0.102317,-4.61409 0.362104,-5.87282 1.674146,-8.11165 2.410397,-4.11303 8.262124,-5.62232 16.320922,-4.20953 2.132285,0.37381 2.816403,0.57284 2.981195,0.86731 0.158782,0.28372 0.0984,0.78474 -0.665308,5.52063 -0.563059,3.49163 -0.602768,3.57144 -1.711008,3.43884 -2.532171,-0.30296 -3.461325,-0.36828 -4.469101,-0.31414 -2.236216,0.12013 -2.41309,0.40627 -2.41309,3.9038 v 2.47566 l 4.176087,0.0353 c 2.916477,0.0247 4.168198,0.0791 4.149934,0.18059 -0.02663,0.14791 -0.842474,9.43665 -0.842474,9.5919 0,0.0467 -1.683798,0.085 -3.741773,0.085 h -3.741774 v 12.96257 12.96257 h -5.879267 -5.879264 z m 10.322622,-1.36771 v -12.96052 l 3.842,-0.0355 3.841999,-0.0355 0.219194,-2.53906 c 0.120557,-1.39648 0.258371,-2.97504 0.306251,-3.50791 l 0.08706,-0.96885 h -4.162487 -4.162488 l 0.08654,-3.24064 c 0.0476,-1.78236 0.154832,-3.50625 0.238299,-3.83089 0.227717,-0.88566 1.041908,-1.66567 2.040618,-1.95494 0.777608,-0.22523 1.775247,-0.22877 5.545008,-0.0197 l 0.465259,0.0258 0.519469,-3.19742 c 0.590042,-3.63181 0.625101,-3.41355 -0.590182,-3.67418 -2.689656,-0.57683 -7.21034,-0.74926 -9.367276,-0.35731 -3.429462,0.62321 -5.510304,2.06486 -6.717998,4.65438 -0.317603,0.681 -0.647811,1.53166 -0.733795,1.89035 -0.240877,1.00482 -0.402802,3.73533 -0.407099,6.86479 l -0.0039,2.83974 h -2.672696 -2.672694 v 3.54132 3.54132 h 2.672694 2.672696 v 12.96257 12.96257 h 4.476763 4.476767 z"
       id="path841"
       inkscape:connector-curvature="0" />
    <path
       style="opacity:1;vector-effect:none;fill:none;fill-opacity:1;stroke:#4ecdc4;stroke-width:0.75;stroke-linecap:butt;stroke-linejoin:miter;stroke-miterlimit:4;stroke-dasharray:none;stroke-dashoffset:0;stroke-opacity:1"
       d="M 42.730184,62.495678 V 49.549998 H 40.08435 37.438517 v -4.25223 -4.25224 h 2.632755 2.632755 l 0.05321,-3.5199 c 0.07009,-4.63689 0.250968,-5.809 1.199962,-7.77575 0.778082,-1.61255 1.708158,-2.63475 3.228951,-3.54877 3.006728,-1.8071 8.029324,-2.12551 14.146721,-0.89684 0.642694,0.12908 1.182121,0.24829 1.198732,0.2649 0.247131,-1.0641 -1.124703,7.42093 -1.23122,7.88124 -0.04339,0.18541 -0.0811,0.19418 -0.497002,0.11551 -1.810747,-0.34252 -4.763106,-0.47875 -5.652828,-0.26085 -0.96543,0.23644 -1.395608,0.56936 -1.761543,1.36329 -0.209486,0.4545 -0.218323,0.57653 -0.24797,3.42423 l -0.03074,2.95294 h 4.165975 4.165973 l -0.04875,0.35435 c -0.02682,0.1949 -0.176503,1.92768 -0.332642,3.85064 -0.156136,1.92295 -0.307393,3.677 -0.336126,3.89788 l -0.05224,0.4016 h -3.773972 -3.773972 v 12.94568 12.94569 H 47.927373 42.7302 Z"
       id="path835"
       inkscape:connector-curvature="0"
       sodipodi:nodetypes="ccccccccccccccccsscccccccccccccc" />
  </g>
</svg>
