<?xml version="1.0" encoding="UTF-8" standalone="no"?>
<!-- Created with Inkscape (http://www.inkscape.org/) -->

<svg
   xmlns:dc="http://purl.org/dc/elements/1.1/"
   xmlns:cc="http://creativecommons.org/ns#"
   xmlns:rdf="http://www.w3.org/1999/02/22-rdf-syntax-ns#"
   xmlns:svg="http://www.w3.org/2000/svg"
   xmlns="http://www.w3.org/2000/svg"
   xmlns:sodipodi="http://sodipodi.sourceforge.net/DTD/sodipodi-0.dtd"
   xmlns:inkscape="http://www.inkscape.org/namespaces/inkscape"
   width="100mm"
   height="100mm"
   viewBox="0 0 100 100"
   version="1.1"
   id="svg8"
   inkscape:version="0.92.4 (5da689c313, 2019-01-14)"
   sodipodi:docname="githubiconNeon.svg">
  <defs
     id="defs2" />
  <sodipodi:namedview
     id="base"
     pagecolor="#ffffff"
     bordercolor="#666666"
     borderopacity="1.0"
     inkscape:pageopacity="0.0"
     inkscape:pageshadow="2"
     inkscape:zoom="0.73782174"
     inkscape:cx="214.91056"
     inkscape:cy="133.14633"
     inkscape:document-units="mm"
     inkscape:current-layer="layer2"
     showgrid="false"
     inkscape:window-width="1920"
     inkscape:window-height="1017"
     inkscape:window-x="-8"
     inkscape:window-y="-8"
     inkscape:window-maximized="1"
     inkscape:object-nodes="false" />
  <metadata
     id="metadata5">
    <rdf:RDF>
      <cc:Work
         rdf:about="">
        <dc:format>image/svg+xml</dc:format>
        <dc:type
           rdf:resource="http://purl.org/dc/dcmitype/StillImage" />
        <dc:title></dc:title>
      </cc:Work>
    </rdf:RDF>
  </metadata>
  <g
     inkscape:label="Layer 1"
     inkscape:groupmode="layer"
     id="layer1"
     transform="translate(0,-197)">
    <path
       style="opacity:1;vector-effect:none;fill:#4c2a85;fill-opacity:1;stroke:#4c2a85;stroke-width:7.63579893;stroke-linecap:butt;stroke-linejoin:miter;stroke-miterlimit:4;stroke-dasharray:none;stroke-dashoffset:0;stroke-opacity:1"
       d="M 179.06327,350.89474 C 115.00546,347.01102 58.845047,305.24659 36.726081,245.04381 19.356302,197.76723 24.958875,144.78804 51.819394,102.31805 78.138881,60.703501 122.16855,33.183142 171.23458,27.678619 c 17.56754,-1.970831 37.96781,-0.692861 55.38509,3.469589 80.15089,19.154766 133.41059,95.714772 123.39454,177.377742 -8.91181,72.65986 -65.17294,130.37773 -137.35703,140.91357 -6.60943,0.9647 -20.77742,2.04749 -25.00762,1.91122 -1.25006,-0.0403 -5.11389,-0.24547 -8.58629,-0.456 z m 31.58317,-8.48681 c 17.93933,-2.73388 30.83375,-6.77407 46.95619,-14.71274 42.87351,-21.11086 73.79968,-61.14926 83.08418,-107.56447 2.54413,-12.71863 2.7804,-15.42837 2.7545,-31.59028 -0.0211,-13.1296 -0.17568,-16.12272 -1.15843,-22.42194 C 335.51999,122.76976 311.43542,84.699631 275.42488,60.437021 256.53867,47.712179 234.8845,39.293791 211.64069,35.63995 205.53922,34.680823 202.4919,34.525921 189.41733,34.51029 173.26218,34.490976 170.53201,34.729566 157.82705,37.270958 98.81537,49.07515 51.878599,94.948351 37.933478,154.44779 c -2.744743,11.71095 -3.502769,18.90313 -3.539994,33.58757 -0.0376,14.83243 0.393266,19.78515 2.748223,31.59029 5.336676,26.75216 18.00403,52.0133 36.459855,72.70796 24.807853,27.81724 60.997918,46.62306 97.127948,50.4716 2.77792,0.2959 5.84626,0.63179 6.81853,0.74642 0.97227,0.11463 7.33623,0.12988 14.14213,0.0339 9.05103,-0.12766 14.14205,-0.44392 18.95627,-1.17758 z"
       id="path843"
       inkscape:connector-curvature="0"
       transform="matrix(0.26458333,0,0,0.26458333,0,197)" />
  </g>
  <g
     inkscape:groupmode="layer"
     id="layer2"
     inkscape:label="Layer 2">
    <circle
       style="fill:#000000;fill-opacity:1;stroke:#4ecdc4;stroke-width:1;stroke-miterlimit:4;stroke-dasharray:none;stroke-opacity:1"
       id="path815"
       cx="50"
       cy="50"
       r="41.955357" />
    <path
       id="path911"
       transform="scale(0.26458333)"
       style="opacity:1;vector-effect:none;fill:#4ecdc4;fill-opacity:1;stroke:#4c2a85;stroke-width:2.83464575;stroke-linecap:butt;stroke-linejoin:miter;stroke-miterlimit:4;stroke-dasharray:none;stroke-dashoffset:0;stroke-opacity:1"
       d="m 266.59766,96.193359 c -4.11178,-0.09891 -15.5305,4.757861 -24.89649,10.695311 l -8.54883,5.41992 -8.85156,-1.23242 c -11.4994,-1.59862 -56.94904,-1.64613 -67.21484,-0.0703 l -7.56836,1.16211 -4.41797,-2.83594 c -6.26124,-4.01781 -21.89904,-11.287746 -26.49219,-12.316405 -8.75694,-1.961163 -10.99237,2.013087 -11.72265,20.841795 l -0.5,12.89844 -5.07032,6.14844 c -6.152097,7.45851 -10.959014,16.42316 -13.960934,26.03711 -1.9942,6.38679 -2.246094,9.05648 -2.246094,23.95898 0,19.04573 0.473927,21.22715 7.90039,36.35938 3.181229,6.48212 6.001315,10.60679 9.953128,14.55859 9.52856,9.52856 25.90924,17.79059 44.21875,22.30273 l 8.40429,2.07032 -2.38671,3.23437 c -2.33081,3.15917 -4.57649,9.00717 -5.78125,15.05274 -0.56206,2.82032 -0.92791,3.05056 -5.7754,3.65625 -9.61683,1.20153 -14.33161,-2.36959 -26.39062,-19.98829 -6.5653,-9.59219 -12.38461,-15.42095 -16.966797,-16.99804 -5.532321,-1.90407 -17.029927,-1.69166 -19.078125,0.35351 -2.703991,2.69993 -0.662985,6.34484 6.404297,11.43555 10.151059,7.31197 11.887949,9.32482 14.750005,17.0918 4.44943,12.07502 7.957,18.57711 12.52539,23.21093 6.78602,6.88328 11.43777,8.6889 23.68164,9.19336 l 10.35742,0.42579 v 9.52539 c 0,8.54085 -0.23622,9.84047 -2.28321,12.57617 -1.16008,1.55043 -2.72338,4.04173 -3.66406,5.81054 0.0899,0.0589 0.15365,0.13994 0.53125,0.45313 l 0.002,0.002 c 0.0135,-3.3e-4 0.0239,2.8e-4 0.0371,0 -0.0392,-0.0308 -0.0791,-0.0613 -0.10352,-0.10351 -0.0113,-0.0193 0.0283,-0.044 0.0508,-0.043 0.21147,0.01 0.42067,0.0492 0.63086,0.0742 0.33392,0.1025 0.78765,0.16241 1.05469,0.39843 0.0299,0.0265 0.049,0.0628 0.0762,0.0918 -0.0186,-0.0147 -0.0532,-0.0404 -0.0801,-0.0605 0.0391,0.0313 0.0461,0.0363 0.082,0.0645 0.001,9.6e-4 0.002,6.5e-4 0.004,0.002 0.001,10e-4 5e-4,0.003 0.002,0.004 0.17715,0.13866 0.30396,0.23703 0.40625,0.32031 0.17781,0.0279 0.3584,0.0504 0.53906,0.0918 0.0593,-0.002 0.12102,-0.012 0.17969,-0.0117 0.31495,0.002 0.62575,0.0381 1.00391,0.0664 0.26933,0.042 0.53966,0.0627 0.81054,0.0742 0.68921,-1.13099 1.61375,-2.52652 2.63672,-3.95508 l 3.83204,-5.35351 v -12.39258 -12.39258 l -12.00391,-0.51953 c -10.42745,-0.45033 -12.68933,-0.85225 -17.21094,-3.06445 -7.70869,-3.77151 -12.6026,-10.77581 -17.41601,-24.92774 -3.21658,-9.45711 -6.065186,-13.25615 -13.740239,-18.3125 -3.686808,-2.42888 -6.946692,-4.80969 -7.24414,-5.29101 -0.299263,-0.48423 1.64187,-0.875 4.345703,-0.875 7.644589,0 11.651726,2.63076 18.523436,12.15234 18.26526,25.30874 18.80003,25.72965 32.50195,25.64453 11.06363,-0.0687 11.63985,-0.43779 12.53711,-8.01367 0.54646,-4.61395 4.45225,-13.71543 6.4043,-14.92187 1.66337,-1.02801 3.74467,-5.80663 3.03125,-6.96094 -0.37096,-0.60023 -4.97548,-2.0106 -10.23242,-3.13477 -18.01039,-3.85154 -36.09267,-12.47058 -45.05469,-21.47656 -5.30687,-5.33293 -12.557453,-18.41448 -15.439452,-27.85351 -2.416369,-7.92055 -2.424416,-30.77111 -0.01172,-39.77149 2.465311,-9.19668 7.753703,-19.17803 14.275391,-26.94531 l 5.77344,-6.875 0.65039,-14.50781 c 0.63503,-14.16011 1.1153,-16.8418 3.02344,-16.8418 2.64342,0 17.10245,6.46404 24.6914,11.03906 l 8.64258,5.21094 5.57227,-1.17578 c 7.80966,-1.64762 63.45904,-1.60897 73.03515,0.0508 l 7.08594,1.22851 7.28906,-4.76367 c 8.11253,-5.30151 20.72645,-11.58984 23.25,-11.58984 0.90176,0 1.87449,0.75532 2.16211,1.67773 1.05302,3.37897 2.44399,15.25385 2.46289,21.02149 0.0242,7.54765 0.76064,9.37938 6.73438,16.76953 5.82485,7.20598 9.62896,14.82137 12.60547,25.23437 3.18454,11.14512 3.1792,30.47801 -0.0117,40.71875 -3.57219,11.46378 -10.14188,23.29294 -15.72266,28.31055 -11.21677,10.08482 -27.16481,16.95033 -51.23828,22.05469 -1.17075,0.24824 -2.56352,1.26123 -3.09375,2.25195 -0.76724,1.43363 -0.35539,2.55687 2.01758,5.5 6.77136,8.39831 7.00523,9.60462 7.34765,38.03516 l 0.31055,25.71289 3.76367,5.82226 c 0.76679,1.18638 1.43858,2.28309 2.02344,3.27344 0.18777,-0.10539 0.41966,-0.22958 0.64648,-0.30273 0.19625,-0.0633 0.3965,-0.11291 0.59571,-0.16602 0.004,-0.001 0.006,-0.002 0.01,-0.004 -0.10276,-0.51805 0.33239,-0.55235 0.91407,-0.53906 0.37989,-0.21382 0.34186,-0.13082 0.67968,-0.19922 0.11849,-0.0238 0.23429,-0.0586 0.35157,-0.0879 0.21649,-0.0424 0.43233,-0.0935 0.65039,-0.12695 0.0453,-0.007 -0.15937,0.0901 -0.11719,0.0723 0.57349,-0.24299 0.12426,-0.18318 1.05469,-0.3711 0.0351,-0.007 0.0716,-10e-5 0.10742,0 0.0394,-0.0159 0.0771,-0.0341 0.11719,-0.0488 -0.49745,-1.0038 -1.0876,-2.06287 -1.83204,-3.22656 l -3.35546,-5.24414 -0.041,-19.38867 c -0.0557,-25.67486 -0.83561,-31.9449 -4.98047,-40.02344 l -3.29297,-6.41797 7.27149,-1.59765 c 16.9663,-3.72709 34.92807,-12.65086 44.61718,-22.16602 6.30308,-6.18994 12.98948,-18.22851 16.48633,-29.68555 2.49098,-8.16286 2.49053,-34.60028 -0.002,-43.60546 -2.47744,-8.95238 -8.41556,-20.66163 -13.85938,-27.32618 l -4.70703,-5.75976 -0.67187,-9.09375 c -1.41082,-19.05411 -3.21469,-25.291022 -7.63477,-26.400393 -0.20636,-0.05178 -0.44854,-0.07944 -0.72265,-0.08594 z" />
  </g>
</svg>
