<?xml version="1.0" encoding="UTF-8" standalone="no"?>
<!-- Created with Inkscape (http://www.inkscape.org/) -->

<svg
   xmlns:dc="http://purl.org/dc/elements/1.1/"
   xmlns:cc="http://creativecommons.org/ns#"
   xmlns:rdf="http://www.w3.org/1999/02/22-rdf-syntax-ns#"
   xmlns:svg="http://www.w3.org/2000/svg"
   xmlns="http://www.w3.org/2000/svg"
   xmlns:sodipodi="http://sodipodi.sourceforge.net/DTD/sodipodi-0.dtd"
   xmlns:inkscape="http://www.inkscape.org/namespaces/inkscape"
   width="100mm"
   height="100mm"
   viewBox="0 0 100 100"
   version="1.1"
   id="svg8"
   inkscape:version="0.92.4 (5da689c313, 2019-01-14)"
   sodipodi:docname="linkediniconNeon.svg">
  <defs
     id="defs2" />
  <sodipodi:namedview
     id="base"
     pagecolor="#ffffff"
     bordercolor="#666666"
     borderopacity="1.0"
     inkscape:pageopacity="0.0"
     inkscape:pageshadow="2"
     inkscape:zoom="1.0434375"
     inkscape:cx="135.09355"
     inkscape:cy="91.102861"
     inkscape:document-units="mm"
     inkscape:current-layer="layer2"
     showgrid="false"
     inkscape:window-width="1920"
     inkscape:window-height="1017"
     inkscape:window-x="-8"
     inkscape:window-y="-8"
     inkscape:window-maximized="1"
     inkscape:object-nodes="false" />
  <metadata
     id="metadata5">
    <rdf:RDF>
      <cc:Work
         rdf:about="">
        <dc:format>image/svg+xml</dc:format>
        <dc:type
           rdf:resource="http://purl.org/dc/dcmitype/StillImage" />
        <dc:title></dc:title>
      </cc:Work>
    </rdf:RDF>
  </metadata>
  <g
     inkscape:label="Layer 1"
     inkscape:groupmode="layer"
     id="layer1"
     transform="translate(0,-197)">
    <path
       style="opacity:1;vector-effect:none;fill:#4c2a85;fill-opacity:1;stroke:#4c2a85;stroke-width:7.63579893;stroke-linecap:butt;stroke-linejoin:miter;stroke-miterlimit:4;stroke-dasharray:none;stroke-dashoffset:0;stroke-opacity:1"
       d="M 179.06327,350.89474 C 115.00546,347.01102 58.845047,305.24659 36.726081,245.04381 19.356302,197.76723 24.958875,144.78804 51.819394,102.31805 78.138881,60.703501 122.16855,33.183142 171.23458,27.678619 c 17.56754,-1.970831 37.96781,-0.692861 55.38509,3.469589 80.15089,19.154766 133.41059,95.714772 123.39454,177.377742 -8.91181,72.65986 -65.17294,130.37773 -137.35703,140.91357 -6.60943,0.9647 -20.77742,2.04749 -25.00762,1.91122 -1.25006,-0.0403 -5.11389,-0.24547 -8.58629,-0.456 z m 31.58317,-8.48681 c 17.93933,-2.73388 30.83375,-6.77407 46.95619,-14.71274 42.87351,-21.11086 73.79968,-61.14926 83.08418,-107.56447 2.54413,-12.71863 2.7804,-15.42837 2.7545,-31.59028 -0.0211,-13.1296 -0.17568,-16.12272 -1.15843,-22.42194 C 335.51999,122.76976 311.43542,84.699631 275.42488,60.437021 256.53867,47.712179 234.8845,39.293791 211.64069,35.63995 205.53922,34.680823 202.4919,34.525921 189.41733,34.51029 173.26218,34.490976 170.53201,34.729566 157.82705,37.270958 98.81537,49.07515 51.878599,94.948351 37.933478,154.44779 c -2.744743,11.71095 -3.502769,18.90313 -3.539994,33.58757 -0.0376,14.83243 0.393266,19.78515 2.748223,31.59029 5.336676,26.75216 18.00403,52.0133 36.459855,72.70796 24.807853,27.81724 60.997918,46.62306 97.127948,50.4716 2.77792,0.2959 5.84626,0.63179 6.81853,0.74642 0.97227,0.11463 7.33623,0.12988 14.14213,0.0339 9.05103,-0.12766 14.14205,-0.44392 18.95627,-1.17758 z"
       id="path843"
       inkscape:connector-curvature="0"
       transform="matrix(0.26458333,0,0,0.26458333,0,197)" />
  </g>
  <g
     inkscape:groupmode="layer"
     id="layer2"
     inkscape:label="Layer 2">
    <circle
       style="fill:#000000;fill-opacity:1;stroke:#4ecdc4;stroke-width:1;stroke-miterlimit:4;stroke-dasharray:none;stroke-opacity:1"
       id="path815"
       cx="50"
       cy="50"
       r="41.955357" />
    <g
       id="g1094"
       transform="translate(-131.52879,14.094727)">
      <path
         inkscape:connector-curvature="0"
         id="path1066"
         d="M 159.99529,40.422717 V 24.823588 h 4.84111 4.84111 v 15.599129 15.599127 h -4.84111 -4.84111 z"
         style="opacity:1;vector-effect:none;fill:none;fill-opacity:1;stroke:#4ecdc4;stroke-width:1.5;stroke-linecap:butt;stroke-linejoin:miter;stroke-miterlimit:4;stroke-dasharray:none;stroke-dashoffset:0;stroke-opacity:1" />
      <path
         inkscape:connector-curvature="0"
         id="path1068"
         d="m 162.65438,20.369264 c -1.70165,-0.740897 -2.65909,-2.195184 -2.65909,-4.038957 0,-3.094514 1.70371,-4.774941 4.84111,-4.774941 3.09715,0 4.94529,1.804745 4.9041,4.788959 -0.0459,3.325659 -3.79772,5.456708 -7.08612,4.024939 z"
         style="opacity:1;vector-effect:none;fill:none;fill-opacity:1;stroke:#4ecdc4;stroke-width:1.5;stroke-linecap:butt;stroke-linejoin:miter;stroke-miterlimit:4;stroke-dasharray:none;stroke-dashoffset:0;stroke-opacity:1" />
      <path
         inkscape:connector-curvature="0"
         id="path1070"
         d="m 175.76882,41.229567 c -0.003,-8.135752 -0.1022,-15.155357 -0.22112,-15.599127 -0.21506,-0.802494 -0.19397,-0.806852 3.90768,-0.806852 4.62285,0 4.55031,-0.04705 4.56126,2.958457 0.003,0.739614 0.12592,1.344607 0.27384,1.344433 0.14793,-1.75e-4 0.91443,-0.670333 1.70336,-1.489239 2.15343,-2.235285 4.76886,-3.30535 8.06573,-3.299984 5.65769,0.0092 9.48833,3.233788 10.71619,9.020749 0.2455,1.157012 0.40321,5.96107 0.40321,12.282072 v 10.381768 h -4.66181 -4.66181 v -8.947367 c 0,-10.330936 -0.26496,-12.188147 -1.98406,-13.907251 -1.04026,-1.040265 -1.39369,-1.171625 -3.15227,-1.171625 -1.61353,0 -2.18754,0.174088 -3.09685,0.939218 -2.28495,1.922661 -2.33398,2.184418 -2.46049,13.135856 l -0.11495,9.951169 h -4.63651 -4.6365 z"
         style="opacity:1;vector-effect:none;fill:none;fill-opacity:1;stroke:#4ecdc4;stroke-width:1.5;stroke-linecap:butt;stroke-linejoin:miter;stroke-miterlimit:4;stroke-dasharray:none;stroke-dashoffset:0;stroke-opacity:1" />
    </g>
    <g
       id="g1089"
       transform="translate(-131.53946,14.08822)">
      <path
         transform="scale(0.26458333)"
         inkscape:connector-curvature="0"
         id="path1080"
         d="m 661.40716,158.64827 c -0.12057,-39.50415 -0.28869,-57.05111 -0.57512,-60.023817 -0.45705,-4.743546 -0.29926,-5.252242 2.0602,-6.642015 1.09878,-0.647201 1.7599,-0.67767 14.70392,-0.67767 12.32279,0 13.71709,0.05703 15.35615,0.628118 3.70139,1.289649 5.14338,3.964814 5.14338,9.541964 0,1.70553 0.0993,3.20026 0.22066,3.32163 0.12137,0.12137 1.83767,-1.34156 3.81401,-3.25095 6.76028,-6.53127 13.62994,-10.068902 22.56389,-11.6196 4.07626,-0.70753 12.7003,-0.801413 16.43351,-0.178898 17.00588,2.835737 28.56906,12.959458 33.86644,29.650528 1.50902,4.75462 1.94452,7.12096 2.37529,12.90627 0.5149,6.91528 1.00628,36.60082 1.01936,61.5833 l 0.0108,20.58425 h -20.47087 -20.47086 l -0.15741,-32.95173 c -0.16143,-33.79594 -0.30724,-37.84897 -1.59142,-44.23655 -0.85293,-4.24255 -2.16299,-6.90739 -4.76114,-9.68482 -3.33186,-3.56177 -3.88204,-3.76575 -10.15029,-3.76318 -6.24527,0.003 -6.88862,0.21803 -10.86926,3.64049 -5.23712,4.50275 -6.0374,6.89332 -6.74226,20.14022 -0.28092,5.2796 -1.02356,51.23624 -1.02423,63.3825 l -1.9e-4,3.47307 h -20.29209 -20.29209 z m 35.40304,31.08813 c 0.35517,-28.4181 0.87123,-46.35215 1.45993,-50.73582 0.99876,-7.43713 2.68852,-10.9334 7.30101,-15.10648 2.72182,-2.46253 4.62568,-3.73194 7.05879,-4.70648 1.73258,-0.69396 2.46491,-0.76139 8.34426,-0.76838 l 6.44499,-0.008 2.24558,1.10549 c 1.69825,0.83605 2.95381,1.84972 5.15133,4.15894 3.32957,3.49881 4.8128,6.20865 5.92793,10.83024 1.69994,7.04531 2.01049,13.40362 2.29433,46.97583 l 0.23308,27.56792 h 14.71987 14.71988 l -0.17486,-34.81532 c -0.21367,-42.54262 -0.40576,-45.98083 -3.00206,-53.7345 -2.02487,-6.04713 -4.90543,-10.93038 -8.89902,-15.08603 -6.79213,-7.06775 -15.7008,-10.551622 -26.98172,-10.551622 -7.13292,0 -12.5688,1.089251 -17.70101,3.546958 -3.99953,1.915294 -6.40629,3.706864 -11.6342,8.660404 -5.75552,5.45345 -6.69929,6.03754 -8.69252,5.37971 -2.15494,-0.7112 -2.6723,-2.27771 -2.9239,-8.85341 -0.16135,-4.216764 -0.31597,-5.440089 -0.74134,-5.865459 -0.30069,-0.30069 -1.59555,-0.684094 -2.93926,-0.870302 -2.36072,-0.327146 -22.24419,-0.296154 -22.52582,0.03511 -0.0792,0.09318 -0.0296,4.514981 0.11023,9.826221 0.26184,9.94483 0.65429,62.6501 0.65537,88.01605 l 6.1e-4,14.31939 14.65462,-0.0883 14.65463,-0.0883 z"
         style="opacity:1;vector-effect:none;fill:none;fill-opacity:1;stroke:#4c2a85;stroke-width:2.83464575;stroke-linecap:butt;stroke-linejoin:miter;stroke-miterlimit:4;stroke-dasharray:none;stroke-dashoffset:0;stroke-opacity:1" />
      <path
         transform="scale(0.26458333)"
         inkscape:connector-curvature="0"
         id="path1082"
         d="m 617.388,80.804159 c -7.35939,-1.857807 -12.64461,-6.72996 -14.71711,-13.566891 -0.81464,-2.687421 -0.82097,-8.917949 -0.0122,-12.018453 2.41289,-9.250095 9.53504,-14.23108 20.34856,-14.23108 5.42022,0 9.22282,1.053257 13.19304,3.654246 5.17423,3.38977 7.99963,9.273227 8.01471,16.689388 0.003,1.591491 -0.22716,3.788332 -0.51199,4.88187 -1.66249,6.382732 -6.6605,11.59008 -13.43041,13.99293 -2.07227,0.735513 -3.189,0.898926 -6.72066,0.983452 -2.8715,0.06873 -4.85648,-0.05541 -6.16394,-0.385462 z m 9.70763,-5.435216 c 4.68617,-1.220594 9.17205,-4.928696 10.71978,-8.861144 1.03577,-2.631676 1.11547,-7.832944 0.16261,-10.611313 -2.23846,-6.526924 -8.06392,-9.87614 -16.29173,-9.366562 -5.83048,0.361104 -9.75519,2.328158 -11.95129,5.989955 -1.63853,2.732098 -1.9389,4.095076 -1.9389,8.79797 0,3.949911 0.0657,4.377575 0.97387,6.3438 2.84208,6.15291 11.0462,9.603352 18.32566,7.707294 z"
         style="opacity:1;vector-effect:none;fill:none;fill-opacity:1;stroke:#4c2a85;stroke-width:2.83464575;stroke-linecap:butt;stroke-linejoin:miter;stroke-miterlimit:4;stroke-dasharray:none;stroke-dashoffset:0;stroke-opacity:1" />
      <path
         transform="scale(0.26458333)"
         inkscape:connector-curvature="0"
         id="path1084"
         d="M 601.86648,152.80336 V 91.13535 h 21.1772 21.1772 v 61.66801 61.66802 h -21.1772 -21.1772 z m 36.59421,0 V 96.556714 h -15.41701 -15.417 v 56.246646 56.24665 h 15.417 15.41701 z"
         style="opacity:1;vector-effect:none;fill:none;fill-opacity:1;stroke:#4c2a85;stroke-width:2.83464575;stroke-linecap:butt;stroke-linejoin:miter;stroke-miterlimit:4;stroke-dasharray:none;stroke-dashoffset:0;stroke-opacity:1" />
    </g>
  </g>
</svg>
