<?xml version="1.0" encoding="UTF-8" standalone="no"?>
<!-- Created with Inkscape (http://www.inkscape.org/) -->

<svg
   xmlns:dc="http://purl.org/dc/elements/1.1/"
   xmlns:cc="http://creativecommons.org/ns#"
   xmlns:rdf="http://www.w3.org/1999/02/22-rdf-syntax-ns#"
   xmlns:svg="http://www.w3.org/2000/svg"
   xmlns="http://www.w3.org/2000/svg"
   xmlns:sodipodi="http://sodipodi.sourceforge.net/DTD/sodipodi-0.dtd"
   xmlns:inkscape="http://www.inkscape.org/namespaces/inkscape"
   width="300"
   height="300"
   viewBox="0 0 79.374998 79.375002"
   version="1.1"
   id="icon"
   inkscape:version="0.92.4 (5da689c313, 2019-01-14)"
   sodipodi:docname="linkediniconPlain.svg">
  <sodipodi:namedview
     id="base"
     pagecolor="#ffffff"
     bordercolor="#666666"
     borderopacity="1.0"
     inkscape:pageopacity="0.0"
     inkscape:pageshadow="2"
     inkscape:zoom="1.4"
     inkscape:cx="-136.58418"
     inkscape:cy="156.18168"
     inkscape:document-units="px"
     inkscape:current-layer="layer1"
     showgrid="false"
     units="px"
     inkscape:window-width="1920"
     inkscape:window-height="1017"
     inkscape:window-x="-8"
     inkscape:window-y="-8"
     inkscape:window-maximized="1" />
  <metadata
     id="metadata5">
    <rdf:RDF>
      <cc:Work
         rdf:about="">
        <dc:format>image/svg+xml</dc:format>
        <dc:type
           rdf:resource="http://purl.org/dc/dcmitype/StillImage" />
        <dc:title />
      </cc:Work>
    </rdf:RDF>
  </metadata>
  <g
     inkscape:label="Layer 1"
     inkscape:groupmode="layer"
     id="layer1"
     transform="translate(0,-217.62498)">
    <path
       style="opacity:1;vector-effect:none;fill:#000000;fill-opacity:1;stroke:#000000;stroke-width:0.9755038;stroke-linecap:butt;stroke-linejoin:miter;stroke-miterlimit:4;stroke-dasharray:none;stroke-dashoffset:0;stroke-opacity:1"
       d="m 37.880851,289.73816 c -14.887215,-0.87108 -27.19406,-11.60272 -30.0859674,-26.23513 -0.741324,-3.75092 -0.7722095,-8.13873 -0.084099,-11.94807 1.5752798,-8.72067 6.6147774,-16.37844 14.0340174,-21.3254 11.132799,-7.42305 25.891512,-7.16453 36.807101,0.64475 1.59285,1.13956 2.435881,1.86275 4.050892,3.47507 2.610234,2.60587 4.327963,4.94919 5.960745,8.13162 3.361837,6.55253 4.398902,13.90273 2.977069,21.10001 -1.70002,8.60549 -6.778796,16.12776 -14.134081,20.93428 -5.728998,3.74377 -12.742405,5.61976 -19.525674,5.22287 z m 5.688692,-0.44003 c 6.039429,-0.82113 11.301124,-2.99626 15.897272,-6.57174 6.232988,-4.84885 10.479142,-11.86333 11.910099,-19.675 0.371972,-2.03063 0.488461,-3.40145 0.488461,-5.74821 0,-2.35107 -0.117344,-3.72821 -0.489791,-5.74822 -1.421586,-7.71014 -5.5177,-14.57012 -11.610473,-19.44467 -1.057723,-0.84622 -3.335413,-2.3647 -4.575044,-3.05007 -3.852971,-2.13022 -8.359645,-3.48224 -12.896352,-3.86899 -1.45629,-0.12414 -5.185723,-0.0565 -6.480523,0.11749 -2.228707,0.29958 -4.400068,0.79311 -6.340699,1.44121 -11.115312,3.71208 -19.347551,13.19018 -21.4731401,24.72288 -0.3977587,2.15809 -0.4967949,3.32035 -0.4967949,5.83032 0,2.50997 0.099031,3.67222 0.4967949,5.83032 2.5127671,13.63339 13.4259201,24.10399 27.1716271,26.06975 1.69724,0.24272 2.383041,0.2774 4.927038,0.24909 1.676904,-0.0187 2.861605,-0.0713 3.471525,-0.15421 z"
       id="path817"
       inkscape:connector-curvature="0" />
    <flowRoot
       xml:space="preserve"
       id="flowRoot842"
       style="fill:black;fill-opacity:1;stroke:none;font-family:'Myriad Pro';font-style:normal;font-weight:bold;font-size:40px;line-height:1.25;letter-spacing:0px;word-spacing:0px;-inkscape-font-specification:'Myriad Pro Bold';font-stretch:normal;font-variant:normal;"><flowRegion
         id="flowRegion844"
         style="-inkscape-font-specification:'Myriad Pro Bold';font-family:'Myriad Pro';font-weight:bold;font-style:normal;font-stretch:normal;font-variant:normal;"><rect
           id="rect846"
           width="185"
           height="170"
           x="-404.28571"
           y="15.714286"
           style="-inkscape-font-specification:'Myriad Pro Bold';font-family:'Myriad Pro';font-weight:bold;font-style:normal;font-stretch:normal;font-variant:normal;" /></flowRegion><flowPara
         id="flowPara848" /></flowRoot>    <text
       xml:space="preserve"
       style="font-style:normal;font-variant:normal;font-weight:bold;font-stretch:normal;font-size:10.58333302px;line-height:1.25;font-family:'Myriad Pro';-inkscape-font-specification:'Myriad Pro Bold';letter-spacing:0px;word-spacing:0px;fill:#000000;fill-opacity:1;stroke:none;stroke-width:0.26458332;"
       x="-93.927086"
       y="227.45236"
       id="text852"><tspan
         sodipodi:role="line"
         id="tspan850"
         x="-93.927086"
         y="236.71278"
         style="stroke-width:0.26458332;-inkscape-font-specification:'Myriad Pro Bold';font-family:'Myriad Pro';font-weight:bold;font-style:normal;font-stretch:normal;font-variant:normal;" /></text>
    <flowRoot
       xml:space="preserve"
       id="flowRoot854"
       style="fill:black;fill-opacity:1;stroke:none;font-family:'Myriad Pro';font-style:normal;font-weight:bold;font-size:40px;line-height:1.25;letter-spacing:0px;word-spacing:0px;-inkscape-font-specification:'Myriad Pro Bold';font-stretch:normal;font-variant:normal;"><flowRegion
         id="flowRegion856"
         style="-inkscape-font-specification:'Myriad Pro Bold';font-family:'Myriad Pro';font-weight:bold;font-style:normal;font-stretch:normal;font-variant:normal;"><rect
           id="rect858"
           width="159.28572"
           height="129.28572"
           x="-431.42856"
           y="-28.571428"
           style="-inkscape-font-specification:'Myriad Pro Bold';font-family:'Myriad Pro';font-weight:bold;font-style:normal;font-stretch:normal;font-variant:normal;" /></flowRegion><flowPara
         id="flowPara860" /></flowRoot>    <g
       aria-label="in"
       transform="matrix(0.26458333,0,0,0.26458333,145.63997,243.82159)"
       style="font-style:normal;font-variant:normal;font-weight:bold;font-stretch:normal;font-size:192px;line-height:1.25;font-family:'Myriad Pro';-inkscape-font-specification:'Myriad Pro Bold';letter-spacing:-6px;word-spacing:0px;fill:#4c2a85;fill-opacity:1;stroke:#000000;stroke-width:2;stroke-miterlimit:4;stroke-dasharray:none;stroke-opacity:1"
       id="flowRoot866">
      <path
         d="M -432.67627,112.28516 V 18.397156 h -29.184 v 93.888004 z m -14.592,-105.4080038 c 9.6,0 15.552,-6.52799995 15.552,-14.5919999 -0.192,-8.2560003 -5.952,-14.5920003 -15.36,-14.5920003 -9.408,0 -15.552,6.336 -15.552,14.5920003 0,8.06399995 5.952,14.5919999 15.168,14.5919999 z"
         id="path874" />
      <path
         d="m -415.36027,112.28516 h 29.184 V 58.141156 c 0,-2.688 0.192,-5.376 0.96,-7.296 2.112,-5.376 6.912,-10.944 14.976,-10.944 10.56,0 14.784,8.256 14.784,20.352 v 52.032004 h 29.184 V 56.797156 c 0,-27.648 -14.4,-40.512 -33.6,-40.512 -15.744,0 -25.152,9.024 -28.992,15.168 h -0.576 l -1.344,-13.056 h -25.344 c 0.384,8.448 0.768,18.24 0.768,29.952 z"
         id="path876" />
    </g>
  </g>
</svg>
