<?xml version="1.0" encoding="UTF-8" standalone="no"?>
<!-- Created with Inkscape (http://www.inkscape.org/) -->

<svg
   xmlns:dc="http://purl.org/dc/elements/1.1/"
   xmlns:cc="http://creativecommons.org/ns#"
   xmlns:rdf="http://www.w3.org/1999/02/22-rdf-syntax-ns#"
   xmlns:svg="http://www.w3.org/2000/svg"
   xmlns="http://www.w3.org/2000/svg"
   xmlns:sodipodi="http://sodipodi.sourceforge.net/DTD/sodipodi-0.dtd"
   xmlns:inkscape="http://www.inkscape.org/namespaces/inkscape"
   width="300"
   height="300"
   viewBox="0 0 79.374998 79.375002"
   version="1.1"
   id="icon"
   inkscape:version="0.92.4 (5da689c313, 2019-01-14)"
   sodipodi:docname="twittericonPlain.svg">
  <sodipodi:namedview
     id="base"
     pagecolor="#ffffff"
     bordercolor="#666666"
     borderopacity="1.0"
     inkscape:pageopacity="0.0"
     inkscape:pageshadow="2"
     inkscape:zoom="1.4"
     inkscape:cx="79.157664"
     inkscape:cy="164.00072"
     inkscape:document-units="px"
     inkscape:current-layer="layer1"
     showgrid="false"
     units="px"
     inkscape:window-width="1920"
     inkscape:window-height="1017"
     inkscape:window-x="-8"
     inkscape:window-y="-8"
     inkscape:window-maximized="1" />
  <metadata
     id="metadata5">
    <rdf:RDF>
      <cc:Work
         rdf:about="">
        <dc:format>image/svg+xml</dc:format>
        <dc:type
           rdf:resource="http://purl.org/dc/dcmitype/StillImage" />
        <dc:title></dc:title>
      </cc:Work>
    </rdf:RDF>
  </metadata>
  <g
     inkscape:label="Layer 1"
     inkscape:groupmode="layer"
     id="layer1"
     transform="translate(0,-217.62498)">
    <path
       style="opacity:1;vector-effect:none;fill:#000000;fill-opacity:1;stroke:#000000;stroke-width:0.9755038;stroke-linecap:butt;stroke-linejoin:miter;stroke-miterlimit:4;stroke-dasharray:none;stroke-dashoffset:0;stroke-opacity:1"
       d="m 37.880851,289.73816 c -14.887215,-0.87108 -27.19406,-11.60272 -30.0859674,-26.23513 -0.741324,-3.75092 -0.7722095,-8.13873 -0.084099,-11.94807 1.5752798,-8.72067 6.6147774,-16.37844 14.0340174,-21.3254 11.132799,-7.42305 25.891512,-7.16453 36.807101,0.64475 1.59285,1.13956 2.435881,1.86275 4.050892,3.47507 2.610234,2.60587 4.327963,4.94919 5.960745,8.13162 3.361837,6.55253 4.398902,13.90273 2.977069,21.10001 -1.70002,8.60549 -6.778796,16.12776 -14.134081,20.93428 -5.728998,3.74377 -12.742405,5.61976 -19.525674,5.22287 z m 5.688692,-0.44003 c 6.039429,-0.82113 11.301124,-2.99626 15.897272,-6.57174 6.232988,-4.84885 10.479142,-11.86333 11.910099,-19.675 0.371972,-2.03063 0.488461,-3.40145 0.488461,-5.74821 0,-2.35107 -0.117344,-3.72821 -0.489791,-5.74822 -1.421586,-7.71014 -5.5177,-14.57012 -11.610473,-19.44467 -1.057723,-0.84622 -3.335413,-2.3647 -4.575044,-3.05007 -3.852971,-2.13022 -8.359645,-3.48224 -12.896352,-3.86899 -1.45629,-0.12414 -5.185723,-0.0565 -6.480523,0.11749 -2.228707,0.29958 -4.400068,0.79311 -6.340699,1.44121 -11.115312,3.71208 -19.347551,13.19018 -21.4731401,24.72288 -0.3977587,2.15809 -0.4967949,3.32035 -0.4967949,5.83032 0,2.50997 0.099031,3.67222 0.4967949,5.83032 2.5127671,13.63339 13.4259201,24.10399 27.1716271,26.06975 1.69724,0.24272 2.383041,0.2774 4.927038,0.24909 1.676904,-0.0187 2.861605,-0.0713 3.471525,-0.15421 z"
       id="path817"
       inkscape:connector-curvature="0" />
    <path
       style="fill:#4c2a85;fill-opacity:1;stroke:#000000;stroke-width:0.5291667;stroke-miterlimit:4;stroke-dasharray:none;stroke-opacity:1"
       d="m 46.912143,239.5704 c -3.799651,-0.0836 -6.943001,3.15832 -7.020961,7.24118 -0.0214,1.3033 0.278451,2.5895 0.86881,3.72821 -4.99953,-0.78811 -12.356647,-4.25133 -16.664347,-8.27604 -0.77448,2.18779 -0.0555,9.3219 5.28574,12.37658 3.053604,1.13659 -2.364219,-0.48223 -5.09719,-1.91178 0.0817,1.99788 2.18203,6.94465 5.00078,8.6691 0.73177,0.49926 1.49901,0.95822 2.293868,1.3779 -1.504278,0.002 -3.300308,-0.39849 -4.868228,-0.65843 0.64085,1.87753 3.04925,5.65242 6.221658,6.37867 0.103499,0.0295 0.206009,0.0563 0.309159,0.0848 -3.459407,1.37404 -7.208357,1.67672 -10.820007,0.87355 1.28358,1.27927 2.72017,2.36895 4.27181,3.24021 9.661817,5.36997 21.545537,1.30663 26.542577,-9.0756 2.454495,-5.13513 2.850277,-11.12482 1.0956,-16.58109 1.17874,-1.10036 2.265016,-2.5077 3.225297,-4.17863 -1.306729,1.01301 -2.690836,1.64796 -4.103137,1.88229 -0.0424,-0.0974 -0.0854,-0.19434 -0.129199,-0.29098 1.167009,-1.0958 2.242852,-2.49288 3.194844,-4.1489 -1.425795,1.09832 -2.942103,1.74636 -4.485074,1.91684 -1.2725,-1.63448 -3.139331,-2.5996 -5.122,-2.64794 z"
       id="path1009"
       inkscape:connector-curvature="0"
       sodipodi:nodetypes="cccccccccccccccccccccc" />
  </g>
</svg>
