<?xml version="1.0" encoding="UTF-8" standalone="no"?>
<!-- Created with Inkscape (http://www.inkscape.org/) -->

<svg
   xmlns:dc="http://purl.org/dc/elements/1.1/"
   xmlns:cc="http://creativecommons.org/ns#"
   xmlns:rdf="http://www.w3.org/1999/02/22-rdf-syntax-ns#"
   xmlns:svg="http://www.w3.org/2000/svg"
   xmlns="http://www.w3.org/2000/svg"
   xmlns:sodipodi="http://sodipodi.sourceforge.net/DTD/sodipodi-0.dtd"
   xmlns:inkscape="http://www.inkscape.org/namespaces/inkscape"
   width="100mm"
   height="100mm"
   viewBox="0 0 100 100"
   version="1.1"
   id="svg8"
   inkscape:version="0.92.4 (5da689c313, 2019-01-14)"
   sodipodi:docname="twittericonNeon.svg">
  <defs
     id="defs2" />
  <sodipodi:namedview
     id="base"
     pagecolor="#ffffff"
     bordercolor="#666666"
     borderopacity="1.0"
     inkscape:pageopacity="0.0"
     inkscape:pageshadow="2"
     inkscape:zoom="1.0434375"
     inkscape:cx="292.5908"
     inkscape:cy="120.70729"
     inkscape:document-units="mm"
     inkscape:current-layer="layer2"
     showgrid="false"
     inkscape:window-width="1920"
     inkscape:window-height="1017"
     inkscape:window-x="-8"
     inkscape:window-y="-8"
     inkscape:window-maximized="1"
     inkscape:object-nodes="false" />
  <metadata
     id="metadata5">
    <rdf:RDF>
      <cc:Work
         rdf:about="">
        <dc:format>image/svg+xml</dc:format>
        <dc:type
           rdf:resource="http://purl.org/dc/dcmitype/StillImage" />
        <dc:title></dc:title>
      </cc:Work>
    </rdf:RDF>
  </metadata>
  <g
     inkscape:label="Layer 1"
     inkscape:groupmode="layer"
     id="layer1"
     transform="translate(0,-197)">
    <path
       style="opacity:1;vector-effect:none;fill:#4c2a85;fill-opacity:1;stroke:#4c2a85;stroke-width:7.63579893;stroke-linecap:butt;stroke-linejoin:miter;stroke-miterlimit:4;stroke-dasharray:none;stroke-dashoffset:0;stroke-opacity:1"
       d="M 179.06327,350.89474 C 115.00546,347.01102 58.845047,305.24659 36.726081,245.04381 19.356302,197.76723 24.958875,144.78804 51.819394,102.31805 78.138881,60.703501 122.16855,33.183142 171.23458,27.678619 c 17.56754,-1.970831 37.96781,-0.692861 55.38509,3.469589 80.15089,19.154766 133.41059,95.714772 123.39454,177.377742 -8.91181,72.65986 -65.17294,130.37773 -137.35703,140.91357 -6.60943,0.9647 -20.77742,2.04749 -25.00762,1.91122 -1.25006,-0.0403 -5.11389,-0.24547 -8.58629,-0.456 z m 31.58317,-8.48681 c 17.93933,-2.73388 30.83375,-6.77407 46.95619,-14.71274 42.87351,-21.11086 73.79968,-61.14926 83.08418,-107.56447 2.54413,-12.71863 2.7804,-15.42837 2.7545,-31.59028 -0.0211,-13.1296 -0.17568,-16.12272 -1.15843,-22.42194 C 335.51999,122.76976 311.43542,84.699631 275.42488,60.437021 256.53867,47.712179 234.8845,39.293791 211.64069,35.63995 205.53922,34.680823 202.4919,34.525921 189.41733,34.51029 173.26218,34.490976 170.53201,34.729566 157.82705,37.270958 98.81537,49.07515 51.878599,94.948351 37.933478,154.44779 c -2.744743,11.71095 -3.502769,18.90313 -3.539994,33.58757 -0.0376,14.83243 0.393266,19.78515 2.748223,31.59029 5.336676,26.75216 18.00403,52.0133 36.459855,72.70796 24.807853,27.81724 60.997918,46.62306 97.127948,50.4716 2.77792,0.2959 5.84626,0.63179 6.81853,0.74642 0.97227,0.11463 7.33623,0.12988 14.14213,0.0339 9.05103,-0.12766 14.14205,-0.44392 18.95627,-1.17758 z"
       id="path843"
       inkscape:connector-curvature="0"
       transform="matrix(0.26458333,0,0,0.26458333,0,197)" />
  </g>
  <g
     inkscape:groupmode="layer"
     id="layer2"
     inkscape:label="Layer 2">
    <circle
       style="fill:#000000;fill-opacity:1;stroke:#4ecdc4;stroke-width:1;stroke-miterlimit:4;stroke-dasharray:none;stroke-opacity:1"
       id="path815"
       cx="50"
       cy="50"
       r="41.955357" />
    <path
       style="opacity:1;vector-effect:none;fill:none;fill-opacity:1;stroke:#4ecdc4;stroke-width:1.5;stroke-linecap:butt;stroke-linejoin:miter;stroke-miterlimit:4;stroke-dasharray:none;stroke-dashoffset:0;stroke-opacity:1"
       d="M 43.099801,70.400326 C 42.925472,70.3696 42.240837,70.25317 41.578386,70.14159 37.874201,69.517679 33.968933,67.569584 30.844127,64.786937 c -1.395312,-1.242528 -1.609283,-1.480418 -1.231054,-1.368674 2.254899,0.666189 6.552433,0.803003 9.025594,0.287335 1.331986,-0.277728 2.940764,-0.727509 2.932044,-0.81974 -0.0042,-0.04466 -0.459915,-0.298045 -1.012653,-0.563081 -1.71168,-0.820737 -3.712573,-2.919415 -4.922288,-5.162838 -0.523904,-0.971587 -0.950761,-2.02574 -0.820277,-2.02574 0.03972,0 0.935773,0.142441 1.991231,0.316537 1.055457,0.174096 2.047383,0.337341 2.204278,0.36277 0.473342,0.07672 0.327295,-0.08151 -0.607618,-0.658289 -1.856754,-1.145497 -3.349107,-2.868027 -4.594987,-5.303705 -1.06879,-2.089467 -1.738845,-4.106815 -1.738845,-5.235173 v -0.388434 l 1.036849,0.521316 c 0.906635,0.455845 3.164928,1.383279 3.368276,1.383279 0.03999,0 -0.335891,-0.406173 -0.835287,-0.902605 -2.513788,-2.498886 -3.990816,-6.208908 -4.006765,-10.06425 -0.0064,-1.546773 0.192164,-2.85265 0.433755,-2.85265 0.04986,0 0.199342,0.122939 0.332179,0.273201 0.448765,0.507627 2.713598,2.253165 4.144486,3.194216 3.823518,2.514606 8.649205,4.698222 12.555456,5.681327 0.827823,0.208341 1.527005,0.356928 1.553741,0.330192 0.02674,-0.02673 -0.05807,-0.330473 -0.18846,-0.674973 C 50.096403,40.146289 49.900913,38.64299 49.98173,37.41 c 0.228489,-3.485915 2.555716,-6.618491 5.676106,-7.640349 1.345634,-0.440667 3.45286,-0.442857 4.789575,-0.005 1.112417,0.364401 2.253728,1.069864 3.158103,1.952075 l 0.663945,0.647674 0.794076,-0.162743 c 0.852678,-0.174749 2.686004,-0.977032 3.321271,-1.453422 0.588748,-0.441508 0.627941,-0.453956 0.870602,-0.276519 0.208387,0.152376 0.158928,0.263901 -0.655672,1.478476 -0.484584,0.722516 -1.261264,1.755828 -1.725954,2.296244 -0.464692,0.54042 -0.821537,0.982581 -0.79299,0.982581 0.02855,0 0.416676,-0.119748 0.862508,-0.266107 0.975958,-0.320392 1.725315,-0.691968 2.644122,-1.311119 0.606263,-0.408538 0.709012,-0.440905 0.874465,-0.27545 0.165453,0.165452 0.137502,0.266689 -0.237889,0.8616 -0.721282,1.143066 -1.781053,2.542061 -2.490611,3.287834 l -0.677379,0.711951 0.315284,1.253207 c 0.98972,3.934 1.095312,7.965273 0.311103,11.877141 -1.694465,8.45249 -7.674386,15.423356 -15.454112,18.01505 -2.348645,0.782412 -3.57491,0.981636 -6.339223,1.02989 -1.359765,0.02373 -2.61493,0.01802 -2.789259,-0.0127 z"
       id="path897"
       inkscape:connector-curvature="0" />
    <path
       style="opacity:1;vector-effect:none;fill:none;fill-opacity:1;stroke:#4c2a85;stroke-width:2.64566932;stroke-linecap:butt;stroke-linejoin:miter;stroke-miterlimit:4;stroke-dasharray:none;stroke-dashoffset:0;stroke-opacity:1"
       d="m 151.80766,266.41266 c -8.25347,-2.06907 -15.23448,-5.02996 -23.82643,-10.10562 -8.34084,-4.92732 -18.82107,-14.41143 -18.82107,-17.03216 0,-1.77828 0.41461,-1.90252 4.55226,-1.36399 10.8678,1.41446 24.0183,1.74158 29.38635,0.73099 3.11666,-0.58675 5.80064,-1.20079 5.96439,-1.36454 0.16375,-0.16376 -2.87982,-3.53769 -6.76349,-7.49764 -7.35089,-7.49527 -13.37152,-17.484 -12.82989,-21.28587 0.25681,-1.80267 0.84585,-2.04764 4.51409,-1.8773 l 4.21873,0.19591 -2.92471,-3.07102 c -8.09381,-8.4987 -16.53402,-26.96302 -16.53402,-36.17082 v -4.72767 l 3.1147,1.89907 c 5.12774,3.12644 5.78583,2.36987 2.71842,-3.12521 -4.91622,-8.80711 -7.25268,-18.18295 -7.25077,-29.09603 0.002,-13.98447 1.86329,-15.671 9.74511,-8.83235 7.0608,6.1263 20.81534,14.86111 31.44493,19.96909 9.14021,4.39227 25.24701,10.53192 27.62952,10.53192 0.787,0 1.1216,-3.0735 1.1216,-10.30248 0,-9.16247 0.28317,-10.9066 2.55902,-15.76185 2.97771,-6.35256 9.38948,-13.13942 15.31918,-16.21535 3.15864,-1.63849 6.28399,-2.25974 12.94141,-2.57243 7.80697,-0.36669 9.34775,-0.151 13.94011,1.95145 2.83966,1.30004 6.70876,3.72088 8.59798,5.37965 3.40888,2.99303 3.46541,3.00519 7.44467,1.60122 2.20533,-0.77808 6.09814,-2.58867 8.65068,-4.02353 3.93142,-2.20995 4.87452,-2.41501 6.16839,-1.34119 2.2055,1.83041 1.8995,3.90442 -1.3266,8.99146 -2.94131,4.63796 -2.83021,5.47672 0.40166,3.03226 2.36493,-1.78874 4.77105,-1.79472 6.24766,-0.0155 1.6817,2.02631 0.56954,4.49388 -5.88782,13.06344 l -5.7675,7.65406 1.48646,7.87329 c 3.24895,17.20859 2.79651,32.6472 -1.40106,47.80771 -8.80118,31.78753 -34.0866,57.26949 -64.4961,64.99745 -9.99093,2.53899 -30.41387,2.59144 -40.33786,0.10359 z m 42.16831,-5.83487 c 14.01265,-4.48243 25.29947,-11.53116 35.52193,-22.1838 10.95582,-11.41686 17.44337,-22.52949 22.14145,-37.92645 2.33802,-7.66237 2.57646,-9.89281 2.64197,-24.71478 0.0565,-12.79606 -0.31787,-17.97297 -1.74484,-24.12412 l -1.81684,-7.83182 4.45236,-5.08973 c 2.44881,-2.79934 4.45237,-5.39857 4.45237,-5.77606 0,-0.37748 -1.57068,-0.0301 -3.49041,0.77206 -3.95767,1.65362 -8.01004,1.0599 -8.01004,-1.17357 0,-0.82368 1.44255,-3.29525 3.20568,-5.49237 4.89923,-6.10522 4.87898,-6.36526 -0.3413,-4.38172 -6.78518,2.57817 -9.01481,2.32378 -13.26181,-1.51313 -11.60939,-10.48839 -28.16265,-9.593 -38.43684,2.0791 -5.75308,6.53584 -8.02983,13.47659 -7.329,22.34268 0.31249,3.95328 0.83314,8.80504 1.157,10.78168 0.58803,3.58893 0.58415,3.59389 -2.81535,3.59389 -4.17032,0 -20.53073,-5.29905 -30.59848,-9.91068 -9.78092,-4.48025 -23.74402,-12.75021 -30.8206,-18.2542 -3.12057,-2.42711 -5.86352,-4.22316 -6.09545,-3.99123 -0.23193,0.23193 -0.37887,3.27667 -0.32652,6.76608 0.21066,14.04171 5.77309,26.65034 16.56799,37.5554 1.7549,1.77281 1.88434,2.33973 0.82552,3.61553 -1.41977,1.71072 -2.78094,1.45293 -10.44942,-1.97895 l -5.15164,-2.30552 0.61636,3.08179 c 1.10971,5.54859 8.05698,18.54347 12.63701,23.63756 2.46749,2.74444 6.37109,6.28663 8.67469,7.87155 4.22778,2.90879 5.51816,6.17292 2.8457,7.19844 -0.73846,0.28337 -3.83035,0.0553 -6.87087,-0.50672 -3.04052,-0.56208 -5.72322,-0.82694 -5.96157,-0.5886 -0.23834,0.23835 0.77791,2.50135 2.25833,5.02891 3.28653,5.61115 11.34391,13.82265 15.80943,16.11182 10.7579,5.51486 2.76484,9.711 -20.64677,10.839 l -13.3998,0.64563 4.90239,3.59354 c 7.29328,5.34611 19.19304,10.98833 27.74339,13.1544 10.59789,2.68477 31.28328,2.21908 41.11398,-0.92561 z"
       id="path901"
       inkscape:connector-curvature="0"
       transform="scale(0.26458333)" />
  </g>
</svg>
