<?xml version="1.0" encoding="UTF-8" standalone="no"?>
<!-- Created with Inkscape (http://www.inkscape.org/) -->

<svg
   xmlns:dc="http://purl.org/dc/elements/1.1/"
   xmlns:cc="http://creativecommons.org/ns#"
   xmlns:rdf="http://www.w3.org/1999/02/22-rdf-syntax-ns#"
   xmlns:svg="http://www.w3.org/2000/svg"
   xmlns="http://www.w3.org/2000/svg"
   xmlns:sodipodi="http://sodipodi.sourceforge.net/DTD/sodipodi-0.dtd"
   xmlns:inkscape="http://www.inkscape.org/namespaces/inkscape"
   width="100mm"
   height="100mm"
   viewBox="0 0 100 100"
   version="1.1"
   id="svg8"
   inkscape:version="0.92.4 (5da689c313, 2019-01-14)"
   sodipodi:docname="youtubeiconNeon.svg">
  <defs
     id="defs2" />
  <sodipodi:namedview
     id="base"
     pagecolor="#ffffff"
     bordercolor="#666666"
     borderopacity="1.0"
     inkscape:pageopacity="0.0"
     inkscape:pageshadow="2"
     inkscape:zoom="0.52171875"
     inkscape:cx="41.989374"
     inkscape:cy="-29.114054"
     inkscape:document-units="mm"
     inkscape:current-layer="layer2"
     showgrid="false"
     inkscape:window-width="1920"
     inkscape:window-height="1017"
     inkscape:window-x="-8"
     inkscape:window-y="-8"
     inkscape:window-maximized="1"
     inkscape:object-nodes="false" />
  <metadata
     id="metadata5">
    <rdf:RDF>
      <cc:Work
         rdf:about="">
        <dc:format>image/svg+xml</dc:format>
        <dc:type
           rdf:resource="http://purl.org/dc/dcmitype/StillImage" />
        <dc:title></dc:title>
      </cc:Work>
    </rdf:RDF>
  </metadata>
  <g
     inkscape:label="Layer 1"
     inkscape:groupmode="layer"
     id="layer1"
     transform="translate(0,-197)">
    <path
       style="opacity:1;vector-effect:none;fill:#4c2a85;fill-opacity:1;stroke:#4c2a85;stroke-width:7.63579893;stroke-linecap:butt;stroke-linejoin:miter;stroke-miterlimit:4;stroke-dasharray:none;stroke-dashoffset:0;stroke-opacity:1"
       d="M 179.06327,350.89474 C 115.00546,347.01102 58.845047,305.24659 36.726081,245.04381 19.356302,197.76723 24.958875,144.78804 51.819394,102.31805 78.138881,60.703501 122.16855,33.183142 171.23458,27.678619 c 17.56754,-1.970831 37.96781,-0.692861 55.38509,3.469589 80.15089,19.154766 133.41059,95.714772 123.39454,177.377742 -8.91181,72.65986 -65.17294,130.37773 -137.35703,140.91357 -6.60943,0.9647 -20.77742,2.04749 -25.00762,1.91122 -1.25006,-0.0403 -5.11389,-0.24547 -8.58629,-0.456 z m 31.58317,-8.48681 c 17.93933,-2.73388 30.83375,-6.77407 46.95619,-14.71274 42.87351,-21.11086 73.79968,-61.14926 83.08418,-107.56447 2.54413,-12.71863 2.7804,-15.42837 2.7545,-31.59028 -0.0211,-13.1296 -0.17568,-16.12272 -1.15843,-22.42194 C 335.51999,122.76976 311.43542,84.699631 275.42488,60.437021 256.53867,47.712179 234.8845,39.293791 211.64069,35.63995 205.53922,34.680823 202.4919,34.525921 189.41733,34.51029 173.26218,34.490976 170.53201,34.729566 157.82705,37.270958 98.81537,49.07515 51.878599,94.948351 37.933478,154.44779 c -2.744743,11.71095 -3.502769,18.90313 -3.539994,33.58757 -0.0376,14.83243 0.393266,19.78515 2.748223,31.59029 5.336676,26.75216 18.00403,52.0133 36.459855,72.70796 24.807853,27.81724 60.997918,46.62306 97.127948,50.4716 2.77792,0.2959 5.84626,0.63179 6.81853,0.74642 0.97227,0.11463 7.33623,0.12988 14.14213,0.0339 9.05103,-0.12766 14.14205,-0.44392 18.95627,-1.17758 z"
       id="path843"
       inkscape:connector-curvature="0"
       transform="matrix(0.26458333,0,0,0.26458333,0,197)" />
  </g>
  <g
     inkscape:groupmode="layer"
     id="layer2"
     inkscape:label="Layer 2">
    <circle
       style="fill:#000000;fill-opacity:1;stroke:#4ecdc4;stroke-width:1;stroke-miterlimit:4;stroke-dasharray:none;stroke-opacity:1"
       id="path815"
       cx="50"
       cy="50"
       r="41.955357" />
    <path
       style="opacity:1;vector-effect:none;fill:none;fill-opacity:1;stroke:#4ecdc4;stroke-width:1.5;stroke-linecap:butt;stroke-linejoin:miter;stroke-miterlimit:4;stroke-dasharray:none;stroke-dashoffset:0;stroke-opacity:1"
       d="m 28.737395,69.895844 c -4.13919,-0.60449 -7.547478,-3.74595 -8.647946,-7.97093 -0.318437,-1.22257 -0.388697,-3.35965 -0.388697,-11.82289 0,-6.58527 0.101923,-10.81773 0.281133,-11.67428 0.887304,-4.24101 4.595035,-7.70682 8.91286,-8.33133 2.267819,-0.328 40.221235,-0.30136 42.280499,0.0297 2.274447,0.36563 4.062438,1.24271 5.710124,2.80102 1.575601,1.49014 2.770826,3.67257 3.163449,5.77631 0.333908,1.78915 0.333908,20.83606 0,22.6252 -0.837178,4.48577 -4.470638,7.9242 -9.077818,8.59057 -2.09846,0.30351 -40.139434,0.28247 -42.233604,-0.0234 z"
       id="path1102"
       inkscape:connector-curvature="0" />
    <path
       style="opacity:1;vector-effect:none;fill:none;fill-opacity:1;stroke:#4c2a85;stroke-width:0.75;stroke-linecap:butt;stroke-linejoin:miter;stroke-miterlimit:4;stroke-dasharray:none;stroke-dashoffset:0;stroke-opacity:1"
       d="m 31.747097,70.729165 c -3.720436,-0.0972 -4.315084,-0.19457 -6.081035,-0.99529 -2.86162,-1.29752 -5.176552,-3.99228 -6.138857,-7.14611 -0.42794,-1.40252 -0.522195,-3.62281 -0.517337,-12.18654 0.0055,-9.65017 0.0951,-11.75892 0.559916,-13.17424 1.217645,-3.70758 4.215887,-6.51321 8.120211,-7.59855 0.748924,-0.20819 1.540735,-0.26348 5.071377,-0.35411 5.5227,-0.14176 26.628983,-0.13965 33.280922,0.003 4.621341,0.0993 5.388455,0.1445 6.304471,0.37119 3.20043,0.79205 5.903558,2.99538 7.399867,6.03165 0.803456,1.63036 1.005172,2.51212 1.131247,4.94504 0.145019,2.79849 0.14862,15.81636 0.0052,18.77074 -0.10046,2.06931 -0.15008,2.40627 -0.517515,3.51436 -0.964808,2.90961 -3.008041,5.2569 -5.76531,6.62325 -1.918634,0.95076 -2.660736,1.08672 -6.592793,1.20782 -4.062728,0.12513 -31.354248,0.11569 -36.260356,-0.0125 z m 32.330038,-1.38327 c 7.471376,-0.11256 7.469783,-0.11242 9.219423,-0.81913 2.304451,-0.93081 4.243483,-2.77991 5.303465,-5.05751 0.732351,-1.5736 0.765985,-1.86252 0.91262,-7.83958 0.09582,-3.90557 0.09647,-7.18997 0.0022,-11.15703 -0.124288,-5.23237 -0.152925,-5.68362 -0.413104,-6.50958 -0.863494,-2.74127 -2.711815,-4.95686 -5.135447,-6.15589 -1.652676,-0.81761 -2.476911,-0.96272 -6.055899,-1.06611 -4.612315,-0.13324 -35.73738,-0.095 -37.811525,0.0464 -1.33043,0.0907 -2.005043,0.20074 -2.693558,0.43923 -3.156738,1.09346 -5.530749,3.50896 -6.496021,6.60954 -0.243548,0.78231 -0.291589,1.36082 -0.405352,4.8812 -0.154961,4.79522 -0.05313,16.89394 0.15366,18.25696 0.369525,2.43564 1.931723,4.95498 4.052932,6.53613 0.736886,0.54927 2.126927,1.20008 3.152413,1.47592 0.894162,0.24053 1.471482,0.26712 7.560873,0.34828 9.546877,0.12725 20.659305,0.13156 28.653289,0.0111 z"
       id="path1106"
       inkscape:connector-curvature="0" />
    <path
       style="opacity:1;vector-effect:none;fill:#4ecdc4;fill-opacity:1;stroke:#4c2a85;stroke-width:0.60849488;stroke-linecap:butt;stroke-linejoin:miter;stroke-miterlimit:4;stroke-dasharray:none;stroke-dashoffset:0;stroke-opacity:1"
       d="m 44.036968,59.160507 c -3.21e-4,-0.276212 -0.08123,-4.617696 -0.179765,-9.647745 -0.09853,-5.030041 -0.173133,-9.151542 -0.165797,-9.158875 0.01322,-0.140035 16.72613,9.198195 16.839974,9.281439 0.04985,0.03649 -1.24451,0.829891 -8.190011,5.020498 -4.53707,2.737467 -8.261493,4.983879 -8.276495,4.992045 -0.015,0.0079 -0.02756,-0.21115 -0.02791,-0.487362 z m 7.729014,-5.420949 c 3.636512,-2.194893 6.476551,-3.736724 6.611918,-4.027732 -2.74e-4,-0.0407 -14.111859,-7.713839 -13.565388,-7.496892 -0.0091,0.0091 0.0503,3.442575 0.132033,7.629902 0.08174,4.187326 0.148408,7.674703 0.148163,7.749703 -2.15e-4,0.07499 0.01341,0.136387 0.03033,0.136387 0.01693,0 3.00614,-1.796309 6.64294,-3.991368 z"
       id="path1120"
       inkscape:connector-curvature="0"
       sodipodi:nodetypes="csccsccsccscss" />
  </g>
</svg>
